<svg width="24" height="24" viewBox="0 0 24 24" fill="none" xmlns="http://www.w3.org/2000/svg">
<g clip-path="url(#clip0_4709_9477)">
<path d="M9.11984 6.78639C4.45317 6.78639 0.666504 5.45306 0.666504 3.71973V19.9997C0.666504 21.6797 4.3865 23.0397 8.99984 23.0664H9.11984C13.7865 23.0664 17.5732 21.7331 17.5732 19.9997V3.71973C17.5732 5.41306 13.7865 6.78639 9.11984 6.78639Z" fill="url(#paint0_linear_4709_9477)"/>
<path d="M17.5732 3.71999C17.5732 5.41332 13.7865 6.78665 9.11984 6.78665C4.45317 6.78665 0.666504 5.41332 0.666504 3.71999C0.666504 2.02665 4.45317 0.65332 9.11984 0.65332C13.7865 0.65332 17.5732 1.98665 17.5732 3.71999Z" fill="#E8E8E8"/>
<path d="M15.5998 3.4662C15.5998 4.5462 12.6932 5.41286 9.11984 5.41286C5.5465 5.41286 2.6665 4.5462 2.6665 3.4662C2.6665 2.3862 5.5465 1.51953 9.11984 1.51953C12.6932 1.51953 15.5998 2.39953 15.5998 3.4662Z" fill="#50E6FF"/>
<path d="M9.12 3.91976C7.38486 3.88491 5.6556 4.13259 4 4.6531C5.65396 5.20274 7.39106 5.45992 9.13333 5.4131C10.8756 5.45992 12.6127 5.20274 14.2667 4.6531C12.6026 4.12972 10.8641 3.88201 9.12 3.91976Z" fill="#198AB3"/>
<path d="M14.3198 14.7996V10.293H13.0798V15.813H16.3598V14.7996H14.3198ZM4.78647 12.573C4.53964 12.4715 4.3102 12.332 4.10647 12.1596C4.01693 12.0366 3.97868 11.8836 3.9998 11.733C3.99976 11.652 4.01911 11.5723 4.05623 11.5004C4.09335 11.4285 4.14715 11.3665 4.21313 11.3196C4.38026 11.2143 4.57582 11.1631 4.77313 11.173C5.24743 11.1565 5.71458 11.2919 6.10646 11.5596V10.413C5.6797 10.2574 5.22712 10.185 4.77313 10.1996C4.20041 10.1516 3.63025 10.3179 3.17313 10.6663C2.997 10.8118 2.85625 10.9954 2.76155 11.2033C2.66684 11.4112 2.62065 11.6379 2.62647 11.8663C2.62647 12.5463 3.05313 13.0796 3.9598 13.4796C4.2495 13.6058 4.52265 13.767 4.77313 13.9596C4.83937 14.0093 4.89313 14.0737 4.93016 14.1478C4.96719 14.2218 4.98647 14.3035 4.98647 14.3863C4.9865 14.4672 4.96715 14.547 4.93003 14.6189C4.89292 14.6908 4.83912 14.7528 4.77313 14.7996C4.59518 14.9153 4.38504 14.9713 4.17313 14.9596C3.61151 14.9658 3.07012 14.7502 2.66647 14.3596V15.5996C3.11024 15.8157 3.59978 15.9209 4.09313 15.9063C4.64926 15.9318 5.19941 15.7826 5.66646 15.4796C5.85356 15.3363 6.00336 15.15 6.10316 14.9364C6.20296 14.7229 6.24983 14.4885 6.2398 14.253C6.25273 13.9106 6.13337 13.5764 5.90646 13.3196C5.58977 12.9948 5.20814 12.7404 4.78647 12.573ZM11.7198 14.6663C12.0209 14.1537 12.1733 13.5673 12.1598 12.973C12.171 12.4641 12.0565 11.9603 11.8265 11.5063C11.6183 11.0899 11.2942 10.7426 10.8931 10.5063C10.4867 10.276 10.0269 10.1564 9.5598 10.1596C9.05223 10.1507 8.55116 10.2748 8.10646 10.5196C7.6897 10.7607 7.35165 11.1173 7.13313 11.5463C6.89241 12.0208 6.77329 12.5477 6.78647 13.0796C6.77874 13.5653 6.88853 14.0456 7.10646 14.4796C7.30864 14.8916 7.62289 15.2382 8.01313 15.4796C8.41564 15.724 8.87568 15.8574 9.34647 15.8663L10.4798 17.1996H12.0665L10.4665 15.7196C10.9942 15.5253 11.4375 15.1527 11.7198 14.6663ZM10.4798 14.3196C10.3546 14.4683 10.1985 14.5878 10.0223 14.6698C9.84612 14.7518 9.65413 14.7943 9.4598 14.7943C9.26546 14.7943 9.07348 14.7518 8.89729 14.6698C8.7211 14.5878 8.56495 14.4683 8.4398 14.3196C8.16163 13.9333 8.02936 13.4609 8.06647 12.9863C8.0296 12.5097 8.167 12.0359 8.45313 11.653C8.5729 11.4919 8.73035 11.3628 8.91167 11.2767C9.09299 11.1907 9.29265 11.1505 9.49313 11.1596C9.68748 11.1536 9.88031 11.1955 10.0547 11.2815C10.2291 11.3676 10.3796 11.4951 10.4931 11.653C10.7558 12.046 10.8823 12.5144 10.8531 12.9863C10.9065 13.4748 10.7731 13.9654 10.4798 14.3596V14.3196Z" fill="#F2F2F2"/>
<path d="M19.7465 23.3201L20.0665 22.2668L20.6931 21.9068L21.7731 22.3868L22.4665 21.6801V21.6001L21.9731 20.6535L22.2665 19.9868L23.3465 19.6001H23.4665V18.6268H23.3331L22.2665 18.3068L21.9198 17.6935L22.3865 16.6001L21.6798 15.9201H21.5998L20.6531 16.4001L19.9998 16.0001L19.5731 14.8135H18.5865V14.9601L18.2665 16.0135L17.5865 16.3068L16.4265 15.7735L15.7465 16.4801L15.8131 16.6135L16.3198 17.6001L16.0531 18.2801L14.7998 18.6668V19.6535H14.9465L15.9998 19.9735L16.2931 20.6535L15.7731 21.8001L16.4798 22.4935L16.5998 22.4268L17.5865 21.9201L18.2665 22.1868L18.7198 23.3735H19.6931L19.7465 23.3201ZM18.1465 20.1735C17.8777 19.91 17.7246 19.5506 17.7209 19.1743C17.7171 18.798 17.863 18.4356 18.1265 18.1668C18.3899 17.8981 18.7493 17.745 19.1257 17.7412C19.502 17.7375 19.8644 17.8834 20.1331 18.1468C20.2662 18.2773 20.3723 18.4326 20.4453 18.6041C20.5183 18.7755 20.5569 18.9597 20.5587 19.146C20.5606 19.3323 20.5257 19.5172 20.4561 19.6901C20.3865 19.8629 20.2836 20.0204 20.1531 20.1535C20.0227 20.2865 19.8673 20.3926 19.6959 20.4657C19.5244 20.5387 19.3403 20.5772 19.1539 20.5791C18.9676 20.5809 18.7827 20.5461 18.6099 20.4765C18.437 20.4069 18.2795 20.3039 18.1465 20.1735Z" fill="#949494"/>
</g>
<defs>
<linearGradient id="paint0_linear_4709_9477" x1="0.666504" y1="13.3864" x2="17.5732" y2="13.3864" gradientUnits="userSpaceOnUse">
<stop stop-color="#005BA1"/>
<stop offset="0.07" stop-color="#0060A9"/>
<stop offset="0.36" stop-color="#0071C8"/>
<stop offset="0.52" stop-color="#0078D4"/>
<stop offset="0.64" stop-color="#0074CD"/>
<stop offset="0.82" stop-color="#006ABB"/>
<stop offset="1" stop-color="#005BA1"/>
</linearGradient>
<clipPath id="clip0_4709_9477">
<rect width="24" height="24" fill="white"/>
</clipPath>
</defs>
</svg>
